<?xml version="1.0" encoding="utf-8"?>
<!-- Generator: Adobe Illustrator 16.0.0, SVG Export Plug-In . SVG Version: 6.00 Build 0)  -->
<!DOCTYPE svg PUBLIC "-//W3C//DTD SVG 1.1//EN" "http://www.w3.org/Graphics/SVG/1.1/DTD/svg11.dtd">
<svg version="1.1" id="Capa_1" xmlns="http://www.w3.org/2000/svg" xmlns:xlink="http://www.w3.org/1999/xlink" x="0px" y="0px"
	 width="555.9px" height="555.9px" viewBox="0 0 555.9 555.9" enable-background="new 0 0 555.9 555.9" xml:space="preserve">
<path d="M506.448,219.094H400.276L298.722,66.763c-4.616-4.616-11.54-9.232-18.464-9.232s-13.848,2.308-18.464,9.232
	L160.239,219.094H49.453c-13.848,0-23.081,9.232-23.081,23.081c0,2.309,0,4.616,0,6.925l57.701,214.648
	c4.616,18.465,23.081,34.621,43.854,34.621h300.047c20.772,0,39.236-13.849,43.854-34.621L529.528,249.1c0-2.309,0-4.616,0-6.925
	C529.528,228.327,520.296,219.094,506.448,219.094z M280.258,117.54L349.5,219.094H211.017L280.258,117.54z M277.953,418.493
	c-74.54,0-134.969-5.49-134.969-51.813c0-21.777,14.021-43.101,45.44-61.348c1.595-0.928,3.51-1.117,5.262-0.529
	c1.757,0.582,3.171,1.91,3.889,3.608c4.948,11.679,10.176,26.537,13.387,42.801c0.172,0.857,0.935,1.558,1.801,1.525
	c0.88-0.028,1.593-0.49,1.712-1.348c1.567-11.847,3.141-31.809-0.256-53.258c-0.384-2.44,0.991-4.922,3.299-4.922
	c0.008,0,0.008,0,0.014,0c11.666-5.285,24.756-7.242,38.374-8.512c2.007-0.188,3.951,0.809,4.97,2.553
	c10.031,17.14,20.163,50.07,24.634,65.575c0.234,0.813,1.019,1.359,1.865,1.275c0.847-0.073,1.52-0.741,1.614-1.593
	c1.37-13.244,2.874-39.332-2.795-62.966c-0.378-1.595,0.012-3.282,1.059-4.544c1.058-1.264,2.639-1.954,4.276-1.865
	c9.298,0.504,24.255,2.083,40.381,6.604c1.392,0.392,2.556,1.344,3.218,2.634c6.114,11.93,15.881,33.602,20.848,58.761
	c0.173,0.842,0.936,1.46,1.799,1.426c0.879-0.033,1.598-0.679,1.721-1.542c1.235-9.352,2.478-23.982,1.28-40.272
	c-0.161-1.979,0.829-3.867,2.551-4.869c1.704-1.002,3.842-0.941,5.489,0.147c0.079,0.047,0.14,0.097,0.223,0.142
	c31.439,20.909,43.9,40.554,43.878,60.516C412.915,413.003,352.494,418.493,277.953,418.493z"/>
</svg>
