<?xml version="1.0" encoding="utf-8"?>
<!-- Generator: Adobe Illustrator 16.0.0, SVG Export Plug-In . SVG Version: 6.00 Build 0)  -->
<!DOCTYPE svg PUBLIC "-//W3C//DTD SVG 1.1//EN" "http://www.w3.org/Graphics/SVG/1.1/DTD/svg11.dtd">
<svg version="1.1" id="Capa_1" xmlns="http://www.w3.org/2000/svg" xmlns:xlink="http://www.w3.org/1999/xlink" x="0px" y="0px"
	 width="320px" height="320px" viewBox="0 0 320 320" enable-background="new 0 0 320 320" xml:space="preserve">
<g>
	<g>
		<path d="M166.331,95.046c4.966-8.293,12.826-20.158,22.746-31.547h0.007c8.409-9.665,24.869-22.071,24.869-22.071
			c2.471-1.868,2.208-4.477-0.607-5.78l-19.892-9.301c-2.814-1.316-6.637-0.355-8.499,2.125c0,0-14.717,21.108-32.037,66.042
			C99.374,70.292,48.469,104.22,48.469,163.218c0,61.617,47.406,155.222,111.524,126.968
			c67.524,29.224,111.554-65.351,111.554-126.968C271.547,103.708,225.793,68.827,166.331,95.046z"/>
		<path d="M154.339,75.091c3.096-0.261,5.827-3.003,6.081-6.091c0,0,1.981-24.101-14.81-40.908
			c-16.844-16.818-40.899-14.812-40.899-14.812c-3.093,0.261-5.822,3.001-6.081,6.087c0,0-2.024,24.113,14.792,40.93
			C130.23,77.095,154.339,75.091,154.339,75.091z"/>
	</g>
</g>
</svg>
