<?xml version="1.0" encoding="utf-8"?>
<!-- Generator: Adobe Illustrator 16.0.0, SVG Export Plug-In . SVG Version: 6.00 Build 0)  -->
<!DOCTYPE svg PUBLIC "-//W3C//DTD SVG 1.1//EN" "http://www.w3.org/Graphics/SVG/1.1/DTD/svg11.dtd">
<svg version="1.1" id="Capa_1" xmlns="http://www.w3.org/2000/svg" xmlns:xlink="http://www.w3.org/1999/xlink" x="0px" y="0px"
	 width="320px" height="320px" viewBox="0 0 320 320" enable-background="new 0 0 320 320" xml:space="preserve">
<g>
	<path d="M160,276.602c-64.295,0-116.603-52.307-116.603-116.601C43.397,95.706,95.705,43.398,160,43.398
		S276.603,95.706,276.603,160C276.603,224.295,224.295,276.602,160,276.602z M160,62.398c-53.818,0-97.603,43.784-97.603,97.603
		c0,53.818,43.784,97.601,97.603,97.601s97.603-43.783,97.603-97.601C257.603,106.182,213.818,62.398,160,62.398z"/>
</g>
<g>
	<path d="M167.946,206.568h11.443c5.086,0,10.49,1.112,10.49,7.629c0,6.676-6.039,7.629-10.49,7.629h-38.78
		c-4.45,0-10.49-0.953-10.49-7.629c0-6.517,5.404-7.629,10.49-7.629h12.079v-55.15H140.61c-4.45,0-10.49-0.954-10.49-7.629
		c0-6.517,5.404-7.629,10.49-7.629h16.052c8.741,0,11.284,1.589,11.284,10.648V206.568z M144.901,105.326
		c0-5.403,3.02-7.152,7.152-7.152h8.742c4.132,0,7.151,1.749,7.151,7.152v7.312c0,5.403-3.02,7.151-7.151,7.151h-8.742
		c-4.132,0-7.152-1.748-7.152-7.151V105.326z"/>
</g>
</svg>
