<?xml version="1.0" encoding="utf-8"?>
<!-- Generator: Adobe Illustrator 16.0.0, SVG Export Plug-In . SVG Version: 6.00 Build 0)  -->
<!DOCTYPE svg PUBLIC "-//W3C//DTD SVG 1.1//EN" "http://www.w3.org/Graphics/SVG/1.1/DTD/svg11.dtd">
<svg version="1.1" id="Capa_1" xmlns="http://www.w3.org/2000/svg" xmlns:xlink="http://www.w3.org/1999/xlink" x="0px" y="0px"
	 width="320px" height="320px" viewBox="0 0 320 320" enable-background="new 0 0 320 320" xml:space="preserve">
<g>
	<path d="M310.791,133.716L161.745,51.897c-3.228-1.771-7.148-1.723-10.331,0.128C98.635,82.711,18.334,129.171,10.452,133.133
		c-3.916,1.525-6.691,5.332-6.691,9.788c0,5.799,4.701,10.5,10.5,10.5c3.373,0,3.373,0,28.181-14.166
		c11.9-6.796,28.362-16.268,48.928-28.152c27.131-15.68,54.41-31.517,65.47-37.941l143.847,78.964
		c1.604,0.88,3.335,1.298,5.043,1.298c3.709,0,7.304-1.969,9.214-5.449C317.733,142.89,315.874,136.507,310.791,133.716z"/>
	<g>
		<polygon points="260,139.897 156,79.853 52,139.897 52,269 116,269 116,173 196,173 196,269 260,269 		"/>
	</g>
</g>
</svg>
