<?xml version="1.0" encoding="utf-8"?>
<!-- Generator: Adobe Illustrator 16.0.0, SVG Export Plug-In . SVG Version: 6.00 Build 0)  -->
<!DOCTYPE svg PUBLIC "-//W3C//DTD SVG 1.1//EN" "http://www.w3.org/Graphics/SVG/1.1/DTD/svg11.dtd">
<svg version="1.1" id="Capa_1" xmlns="http://www.w3.org/2000/svg" xmlns:xlink="http://www.w3.org/1999/xlink" x="0px" y="0px"
	 width="320px" height="320px" viewBox="0 0 320 320" enable-background="new 0 0 320 320" xml:space="preserve">
<g>
	<g>
		<path d="M132.228,185.193c2.528-4.223,6.531-10.264,11.581-16.063h0.004c4.281-4.921,12.662-11.238,12.662-11.238
			c1.258-0.951,1.124-2.279-0.31-2.943l-10.128-4.736c-1.432-0.67-3.378-0.181-4.327,1.082c0,0-7.493,10.748-16.312,33.625
			c-27.263-12.332-53.181,4.942-53.181,34.981c0,31.373,24.137,79.032,56.783,64.646c34.38,14.88,56.798-33.273,56.798-64.646
			C185.799,189.604,162.503,171.844,132.228,185.193z"/>
		<path d="M126.122,175.033c1.576-0.133,2.967-1.529,3.096-3.102c0,0,1.009-12.271-7.541-20.829
			c-8.576-8.563-20.824-7.542-20.824-7.542c-1.575,0.133-2.964,1.528-3.096,3.1c0,0-1.03,12.277,7.532,20.84
			C113.847,176.054,126.122,175.033,126.122,175.033z"/>
	</g>
</g>
<path d="M128.407,86.995c6.241,0,11.296-5.057,11.296-11.297c0-6.241-5.055-11.296-11.296-11.296h-0.794
	c-6.241,0-11.296,5.055-11.296,11.296c0,6.24,5.056,11.297,11.296,11.297H128.407z"/>
<path d="M71.925,95.279c0-6.241-5.057-11.297-11.297-11.297h-0.792c-6.241,0-11.298,5.057-11.298,11.297
	c0,6.24,5.059,11.295,11.298,11.295h0.792C66.868,106.574,71.925,101.519,71.925,95.279z"/>
<path d="M196.186,83.981h-0.793c-6.241,0-11.297,5.057-11.297,11.297c0,6.24,5.056,11.295,11.297,11.295h0.793
	c6.24,0,11.296-5.056,11.296-11.295C207.481,89.038,202.426,83.981,196.186,83.981z"/>
<path d="M221.79,138.957h-0.794c-6.238,0-11.296,5.056-11.296,11.296c0,6.242,5.058,11.299,11.296,11.299h0.794
	c6.24,0,11.298-5.057,11.298-11.299C233.088,144.013,228.029,138.957,221.79,138.957z"/>
<path d="M39.542,138.957h-0.794c-6.239,0-11.296,5.056-11.296,11.296c0,6.242,5.057,11.299,11.296,11.299h0.794
	c6.239,0,11.296-5.057,11.296-11.299C50.838,144.013,45.78,138.957,39.542,138.957z"/>
<path d="M253.458,252.406c0,1.072,0.249,2.13,0.729,3.089l16.644,33.287c1.17,2.338,3.559,3.815,6.173,3.815
	s5.004-1.478,6.172-3.815l16.645-33.287c0.479-0.959,0.729-2.017,0.729-3.089V88.891c0-3.813-3.088-6.902-6.901-6.902h-33.288
	c-3.812,0-6.9,3.089-6.9,6.902V252.406L253.458,252.406z M267.261,245.505V117.983h19.484v127.521H267.261L267.261,245.505z
	 M286.745,95.792v8.388h-19.484v-8.388H286.745z M277.003,270.262l-5.477-10.952h10.953L277.003,270.262z"/>
</svg>
