<?xml version="1.0" encoding="utf-8"?>
<!-- Generator: Adobe Illustrator 16.0.0, SVG Export Plug-In . SVG Version: 6.00 Build 0)  -->
<!DOCTYPE svg PUBLIC "-//W3C//DTD SVG 1.1//EN" "http://www.w3.org/Graphics/SVG/1.1/DTD/svg11.dtd">
<svg version="1.1" id="Capa_1" xmlns="http://www.w3.org/2000/svg" xmlns:xlink="http://www.w3.org/1999/xlink" x="0px" y="0px"
	 width="320px" height="320px" viewBox="0 0 320 320" enable-background="new 0 0 320 320" xml:space="preserve">
<g>
	<path d="M160,176.591c17.892,0,59.957-21.533,59.957-73.126c0.001-40.386-5.451-73.124-59.957-73.124
		c-54.505,0-59.957,32.738-59.957,73.125C100.043,155.058,142.108,176.591,160,176.591z M109.004,91.261
		c4.211-8.145,13.322-17.557,32.914-17.14c0,0,11.677,28.325,69.007,15.605c0.231,4.524,0.304,9.141,0.304,13.739
		c0,25.218-11.135,40.844-20.478,49.512c-11.771,10.922-24.84,14.886-30.751,14.886c-5.912,0-18.981-3.964-30.751-14.886
		c-9.342-8.667-20.478-24.293-20.478-49.512C108.771,99.386,108.831,95.292,109.004,91.261z"/>
	<path d="M271.311,251.584c-3.061-19.033-9.362-43.55-22.002-52.262c-8.631-5.951-38.744-22.04-51.603-28.911l-0.224-0.118
		c-1.47-0.785-3.264-0.628-4.575,0.401c-6.736,5.288-14.115,8.853-21.932,10.594c-1.381,0.307-2.515,1.288-3.016,2.61L160,204.88
		l-7.959-20.981c-0.502-1.322-1.636-2.304-3.017-2.61c-7.816-1.741-15.195-5.306-21.932-10.594
		c-1.311-1.029-3.106-1.187-4.576-0.401c-12.706,6.79-43.188,23.206-51.788,29.002c-14.55,9.802-20.912,45.278-22.039,52.289
		c-0.112,0.696-0.047,1.407,0.188,2.07c0.52,1.471,13.874,36.005,111.123,36.005s110.602-34.534,111.123-36.005
		C271.357,252.991,271.423,252.279,271.311,251.584z M202.218,220.064c0.04-0.486,0.471-0.919,0.958-0.96
		c0,0,3.793-0.316,6.449,2.335c2.647,2.65,2.335,6.451,2.335,6.451c-0.04,0.486-0.471,0.919-0.959,0.96c0,0-3.802,0.315-6.451-2.333
		C201.898,223.867,202.218,220.064,202.218,220.064z M211.893,262.766c-10.109,4.454-17.585-10.305-17.585-20.02
		c0-9.303,8.026-14.652,16.47-10.833c2.73-7.085,5.051-10.413,5.051-10.413c0.294-0.391,0.896-0.543,1.34-0.335l3.137,1.466
		c0.443,0.206,0.485,0.617,0.096,0.912c0,0-2.596,1.956-3.921,3.48h-0.001c-1.564,1.795-2.804,3.666-3.587,4.974
		c9.376-4.134,16.59,1.366,16.59,10.749C229.481,252.461,222.539,267.373,211.893,262.766z"/>
</g>
</svg>
