<?xml version="1.0" encoding="utf-8"?>
<!-- Generator: Adobe Illustrator 16.0.0, SVG Export Plug-In . SVG Version: 6.00 Build 0)  -->
<!DOCTYPE svg PUBLIC "-//W3C//DTD SVG 1.1//EN" "http://www.w3.org/Graphics/SVG/1.1/DTD/svg11.dtd">
<svg version="1.1" id="Capa_1" xmlns="http://www.w3.org/2000/svg" xmlns:xlink="http://www.w3.org/1999/xlink" x="0px" y="0px"
	 width="320px" height="320px" viewBox="0 0 320 320" enable-background="new 0 0 320 320" xml:space="preserve">
<g>
	<g>
		<g>
			<path d="M30.336,230.35H253.8c1.436-0.001,2.847-0.561,3.901-1.616l35.864-35.864c1.055-1.056,1.603-2.467,1.603-3.902h0.014
				V53.786c0-3.046-2.471-5.518-5.518-5.518H30.336c-3.047,0-5.518,2.471-5.518,5.518v171.046
				C24.818,227.879,27.289,230.35,30.336,230.35z M259.316,211.511v-17.025h17.027L259.316,211.511z M35.854,59.304h248.293v124.146
				H253.8c-3.047,0-5.518,2.472-5.518,5.518v30.348H35.854V59.304z"/>
			<path d="M291.408,249.944l-33.105-11.035c-0.57-0.189-1.158-0.274-1.745-0.274v-0.01H30.336c-3.047,0-5.518,2.473-5.518,5.519
				v22.071c0,3.046,2.47,5.518,5.518,5.518h226.222h0.001c0.586,0,1.175-0.094,1.744-0.283l33.105-11.036
				c2.254-0.75,3.773-2.859,3.773-5.234S293.662,250.694,291.408,249.944z M57.924,260.696h-22.07v-11.034h22.07V260.696z
				 M251.04,260.696H68.959v-11.034H251.04V260.696z M262.076,258.56v-6.761l10.14,3.38L262.076,258.56z"/>
			<g>
				<path d="M73.046,128.045c-0.15,0-0.301-0.005-0.452-0.015c-1.928-0.125-3.719-1.041-4.948-2.531l-18.75-22.728
					c-2.46-2.982-2.038-7.394,0.945-9.854c2.982-2.46,7.395-2.037,9.854,0.945l14.01,16.982l38.31-35.822
					c2.823-2.641,7.253-2.492,9.894,0.332c2.641,2.824,2.492,7.253-0.332,9.894l-43.75,40.909
					C76.526,127.375,74.815,128.045,73.046,128.045z"/>
			</g>
			<path d="M123.783,183.43l-18.775-11.265l19.056-12.705c3.217-2.145,4.086-6.49,1.941-9.707c-2.144-3.217-6.49-4.086-9.707-1.941
				l-24.574,16.382l-27.601-16.561c-3.315-1.99-7.615-0.914-9.604,2.401s-0.914,7.615,2.401,9.604l21.915,13.148L56.64,187.585
				c-3.217,2.145-4.086,6.49-1.941,9.707c1.349,2.023,3.568,3.118,5.831,3.118c1.334,0,2.683-0.381,3.876-1.177l27.714-18.476
				l24.46,14.676c1.128,0.677,2.369,0.999,3.595,0.999c2.378,0,4.697-1.212,6.009-3.399
				C128.173,189.718,127.098,185.418,123.783,183.43z"/>
			<g>
				<path d="M252.884,156.779c-2.487-2.487-5.799-3.857-9.325-3.857c-3.194,0-6.214,1.125-8.605,3.189l-14.578-14.579
					c0.327-1.877,0.465-3.927,0.406-6.105c-0.147-5.552-1.516-11.981-4.065-19.11c-4.423-12.371-12.235-25.733-18.998-32.495
					c-6.628-6.628-15.453-10.278-24.85-10.278c-9.397,0-18.223,3.65-24.85,10.278c-13.702,13.702-13.702,35.997,0,49.699
					c6.762,6.763,20.125,14.575,32.495,19c7.132,2.55,13.562,3.917,19.108,4.064c2.178,0.061,4.213-0.078,6.105-0.409l14.58,14.581
					c-4.463,5.175-4.24,13.021,0.668,17.93c2.486,2.487,5.798,3.857,9.324,3.857c3.527,0,6.839-1.525,9.325-4.014
					c2.542-2.541,3.909-5.531,3.885-9.531c0.018,0,0.034,0,0.052,0c3.509,0,6.819-1.223,9.323-3.727
					C258.024,170.131,258.024,161.92,252.884,156.779z M210.185,145.989c-1.951,1.951-5.281,2.982-9.632,2.982
					c-4.795,0-10.838-1.254-17.474-3.627c-11.42-4.084-23.621-11.162-29.671-17.211c-5.198-5.199-8.061-12.109-8.061-19.46
					c0-7.352,2.863-14.262,8.061-19.46c5.198-5.198,12.109-8.061,19.46-8.061c7.351,0,14.262,2.863,19.46,8.061
					c6.05,6.05,13.127,18.251,17.212,29.671C214.116,131.682,214.357,141.814,210.185,145.989z M234.828,170.696
					c-1.397,1.398-1.5,3.603-0.237,5.126c1.839,2.219,1.686,5.434-0.356,7.477c-1.049,1.049-2.446,1.626-3.935,1.626
					c-1.489,0-2.887-0.577-3.936-1.626c-2.169-2.17-2.169-5.699,0.002-7.871c0.404-0.405,0.864-0.743,1.371-1.005
					c1.073-0.559,1.824-1.606,2.009-2.802c0.185-1.194-0.217-2.418-1.072-3.275l-15.206-15.207c0.759-0.529,1.463-1.118,2.105-1.76
					c0.641-0.64,1.229-1.345,1.76-2.108l15.207,15.207c0.854,0.856,2.041,1.262,3.279,1.073c1.196-0.187,2.242-0.938,2.799-2.01
					c0.263-0.506,0.602-0.967,1.006-1.371c1.049-1.049,2.446-1.627,3.935-1.627c1.489,0,2.887,0.578,3.936,1.627
					s1.626,2.446,1.626,3.935s-0.577,2.886-1.626,3.935c-1.06,1.059-2.456,1.643-3.935,1.643c-1.283,0-2.541-0.457-3.543-1.288
					c-0.682-0.564-1.545-0.876-2.43-0.876C236.567,169.518,235.61,169.914,234.828,170.696z"/>
				<path d="M166.021,125.676c-1.588-1.153-2.909-2.253-3.928-3.271c-1.438-1.439-3.948-1.44-5.389,0
					c-1.486,1.486-1.486,3.904,0,5.39c1.301,1.301,2.93,2.664,4.842,4.051c0.655,0.474,1.428,0.725,2.234,0.725
					c1.218,0,2.372-0.588,3.088-1.574c0.597-0.824,0.838-1.831,0.678-2.836C167.388,127.156,166.846,126.273,166.021,125.676z"/>
				<path d="M157.99,119.194c0.39-0.94,0.39-1.976,0-2.917c-2.943-7.102-1.332-15.204,4.104-20.64c1.485-1.485,1.485-3.903,0-5.39
					c-1.44-1.438-3.949-1.439-5.39,0c-7.624,7.624-9.883,18.986-5.756,28.946c0.592,1.43,1.975,2.354,3.522,2.354
					c0.502,0,0.993-0.098,1.458-0.291C156.869,120.867,157.601,120.134,157.99,119.194z"/>
			</g>
		</g>
	</g>
</g>
</svg>
